<?xml version="1.0" encoding="UTF-8"?>
<svg width="22px" height="22px" viewBox="0 0 22 22" version="1.1" xmlns="http://www.w3.org/2000/svg" xmlns:xlink="http://www.w3.org/1999/xlink">
    <!-- Generator: Sketch 63.1 (92452) - https://sketch.com -->
    <title>ic_upgrade</title>
    <desc>Created with Sketch.</desc>
    <g id="页面-1" stroke="none" stroke-width="1" fill="none" fill-rule="evenodd">
        <g id="ic_upgrade">
            <path d="M12,2.73205081 C11.3811978,2.37478522 10.6188022,2.37478522 10,2.73205081 L4.33974596,6 C4.03034489,6.17863279 3.78034489,6.4330127 3.60769515,6.73205081 C3.43504542,7.03108891 3.33974596,7.37478522 3.33974596,7.73205081 L3.33974596,14.2679492 C3.33974596,14.9824804 3.72094381,15.6427344 4.33974596,16 L10,19.2679492 C10.3094011,19.446582 10.6547005,19.5358984 11,19.5358984 C11.3452995,19.5358984 11.6905989,19.446582 12,19.2679492 L17.660254,16 C18.2790562,15.6427344 18.660254,14.9824804 18.660254,14.2679492 L18.660254,7.73205081 C18.660254,7.37478522 18.5649546,7.03108891 18.3923048,6.73205081 C18.2196551,6.4330127 17.9696551,6.17863279 17.660254,6 L12,2.73205081 Z" id="多边形" stroke="#6A7078" stroke-width="2" transform="translate(11.000000, 11.000000) rotate(-90.000000) translate(-11.000000, -11.000000) "></path>
            <rect id="矩形" fill="#6A7078" x="9" y="11" width="4" height="5" rx="1"></rect>
            <path d="M11.7682213,6.92186554 L14.6331797,10.3598156 C14.9867437,10.7840925 14.9294197,11.4146572 14.5051428,11.7682213 C14.3254278,11.9179838 14.0988949,12 13.8649584,12 L8.13504161,12 C7.58275686,12 7.13504161,11.5522847 7.13504161,11 C7.13504161,10.7660635 7.21705783,10.5395306 7.36682033,10.3598156 L10.2317787,6.92186554 C10.5853428,6.49758864 11.2159075,6.44026457 11.6401844,6.79382866 C11.6866475,6.83254788 11.7295021,6.87540247 11.7682213,6.92186554 Z" id="三角形" fill="#6A7078"></path>
        </g>
    </g>
</svg>